<?xml version="1.0" encoding="UTF-8"?>
<svg version="1.1" xmlns="http://www.w3.org/2000/svg" width="1024" height="1024">
<path d="M0 0 C1.54251127 -0.00322912 3.08502226 -0.00659429 4.62753296 -0.01008606 C7.8394237 -0.0160197 11.05128777 -0.01793202 14.26318359 -0.01733398 C17.5093342 -0.01725287 20.75534324 -0.02418132 24.00146484 -0.0378418 C40.87880378 -0.10784159 57.6319117 -0.17677241 74.4112854 1.91841125 C77.46417581 2.27911998 80.52411225 2.5392897 83.58647156 2.80529785 C147.56655769 8.41051919 210.79341969 31.80519931 266.8984375 62.29296875 C267.80190918 62.78385986 268.70538086 63.27475098 269.63623047 63.78051758 C278.60697995 68.69557953 287.32983847 73.9583681 295.8984375 79.54296875 C296.63320313 80.02137207 297.36796875 80.49977539 298.125 80.99267578 C299.59142927 81.94861077 301.05726974 82.90544971 302.52246094 83.86328125 C304.23930719 84.98270858 305.96276636 86.09198234 307.6875 87.19921875 C315.97700175 92.58853669 323.74429369 98.61087748 331.54541016 104.67333984 C333.50550906 106.15442174 335.50954863 107.54791587 337.53515625 108.9375 C338.52128906 109.67355469 339.50742187 110.40960938 340.5234375 111.16796875 C340.5234375 111.82796875 340.5234375 112.48796875 340.5234375 113.16796875 C341.3278125 113.53921875 341.3278125 113.53921875 342.1484375 113.91796875 C347.37623144 116.66943924 351.41488972 119.95130129 355.5234375 124.16796875 C356.2865625 124.72484375 357.0496875 125.28171875 357.8359375 125.85546875 C358.3928125 126.28859375 358.9496875 126.72171875 359.5234375 127.16796875 C359.5234375 127.82796875 359.5234375 128.48796875 359.5234375 129.16796875 C360.10810791 129.4311792 360.69277832 129.69438965 361.29516602 129.96557617 C363.62720305 131.22396145 365.2565016 132.58607257 367.17578125 134.40625 C367.86365723 135.05529297 368.5515332 135.70433594 369.26025391 136.37304688 C370.34959229 137.4162207 370.34959229 137.4162207 371.4609375 138.48046875 C372.21294434 139.19525391 372.96495117 139.91003906 373.73974609 140.64648438 C399.17166123 164.90843437 399.17166123 164.90843437 402.5234375 172.16796875 C403.1834375 172.16796875 403.8434375 172.16796875 404.5234375 172.16796875 C406.02221253 173.82280483 407.44832223 175.54387387 408.8359375 177.29296875 C410.03476563 178.79537109 410.03476563 178.79537109 411.2578125 180.328125 C412.00546875 181.26527344 412.753125 182.20242187 413.5234375 183.16796875 C414.5398658 184.35924137 415.55955121 185.54776501 416.5859375 186.73046875 C418.5234375 189.16796875 418.5234375 189.16796875 418.5234375 191.16796875 C419.1834375 191.16796875 419.8434375 191.16796875 420.5234375 191.16796875 C422.44189865 193.50533439 424.2443507 195.85234126 426.0234375 198.29296875 C426.55952637 199.0192749 427.09561523 199.74558105 427.64794922 200.49389648 C429.28106489 202.71289301 430.90369803 204.93919519 432.5234375 207.16796875 C432.97879883 207.79171387 433.43416016 208.41545898 433.90332031 209.05810547 C436.82212444 213.06341501 439.6881011 217.1032119 442.5234375 221.16796875 C443.27625 222.24304688 444.0290625 223.318125 444.8046875 224.42578125 C461.5904209 248.79798707 476.6933819 275.46182083 488.0859375 302.76953125 C489.46954061 306.04054947 490.97740046 309.22121508 492.5234375 312.41796875 C495.47454769 318.73839458 497.75615812 325.238531 499.98828125 331.83886719 C501.3785118 335.94531833 502.83565227 339.98493454 504.4921875 343.9921875 C506.85109406 349.81252073 508.63834631 355.76873011 510.3984375 361.79296875 C510.91724487 363.56196533 510.91724487 363.56196533 511.4465332 365.36669922 C519.14525154 391.90603536 525.03787413 418.74783062 528.5234375 446.16796875 C528.67208252 447.30419678 528.67208252 447.30419678 528.82373047 448.46337891 C530.82472408 463.83357438 531.68018088 479.10778098 531.65625 494.60546875 C531.65692721 496.02400733 531.65790065 497.44254579 531.65914917 498.86108398 C531.66060661 501.80551276 531.6585356 504.74991079 531.65380859 507.69433594 C531.64811254 511.4185379 531.65140219 515.14266773 531.65738106 518.86686707 C531.66104015 521.78756223 531.6598239 524.70824104 531.65725327 527.62893677 C531.6562867 529.65358529 531.65925766 531.67823452 531.66238403 533.70288086 C531.63224344 545.83230196 531.11128181 557.95180785 529.54296875 569.98828125 C529.40343277 571.09700089 529.40343277 571.09700089 529.26107788 572.2281189 C528.96060898 574.58418106 528.65002795 576.93868572 528.3359375 579.29296875 C528.22706207 580.11434326 528.11818665 580.93571777 528.00601196 581.78198242 C523.36524627 616.47338863 515.11269136 650.14119372 503.5234375 683.16796875 C503.04379662 684.55843026 502.5645822 685.94903901 502.0859375 687.33984375 C499.50057845 694.74043403 496.60481288 701.96204402 493.5234375 709.16796875 C492.85596904 710.77440668 492.1893757 712.38120836 491.5234375 713.98828125 C487.03609726 724.73684168 482.11609194 735.05240228 476.53613281 745.27148438 C475.03011114 748.09182584 473.65927616 750.97456276 472.2734375 753.85546875 C459.85911463 778.79826919 443.5968898 801.8348859 427.2109375 824.29296875 C426.2818457 825.58460938 426.2818457 825.58460938 425.33398438 826.90234375 C424.44356445 828.12050781 424.44356445 828.12050781 423.53515625 829.36328125 C423.00365967 830.09562988 422.47216309 830.82797852 421.92456055 831.58251953 C421.23100464 832.36731689 421.23100464 832.36731689 420.5234375 833.16796875 C419.8634375 833.16796875 419.2034375 833.16796875 418.5234375 833.16796875 C418.265625 833.73 418.0078125 834.29203125 417.7421875 834.87109375 C416.38173973 837.43501454 414.79554788 839.6202324 413.0234375 841.91796875 C412.415 842.7171875 411.8065625 843.51640625 411.1796875 844.33984375 C410.633125 844.943125 410.0865625 845.54640625 409.5234375 846.16796875 C408.8634375 846.16796875 408.2034375 846.16796875 407.5234375 846.16796875 C407.30429687 846.70550781 407.08515625 847.24304688 406.859375 847.796875 C405.06537911 850.98095543 402.6472159 853.47188783 400.1484375 856.10546875 C399.18074591 857.13396449 398.21457771 858.16389584 397.25 859.1953125 C396.78625977 859.69015137 396.32251953 860.18499023 395.84472656 860.69482422 C394.59503477 862.08814282 393.4419183 863.5663541 392.296875 865.046875 C391.41902344 866.09681641 391.41902344 866.09681641 390.5234375 867.16796875 C389.8634375 867.16796875 389.2034375 867.16796875 388.5234375 867.16796875 C388.2965625 867.7196875 388.0696875 868.27140625 387.8359375 868.83984375 C386.13617824 871.85489292 383.97538934 873.98027244 381.5234375 876.41796875 C380.6365625 877.31 379.7496875 878.20203125 378.8359375 879.12109375 C376.5234375 881.16796875 376.5234375 881.16796875 374.5234375 881.16796875 C374.5234375 881.82796875 374.5234375 882.48796875 374.5234375 883.16796875 C373.16015625 884.54296875 373.16015625 884.54296875 371.2109375 886.16796875 C366.62320122 890.04989945 362.23329707 894.12435347 357.84375 898.2265625 C355.5234375 900.16796875 355.5234375 900.16796875 353.5234375 900.16796875 C353.5234375 900.82796875 353.5234375 901.48796875 353.5234375 902.16796875 C351.78951799 903.7743089 349.9853465 905.30549745 348.1484375 906.79296875 C347.15070312 907.61023438 346.15296875 908.4275 345.125 909.26953125 C342.5234375 911.16796875 342.5234375 911.16796875 340.5234375 911.16796875 C340.5234375 911.82796875 340.5234375 912.48796875 340.5234375 913.16796875 C338.29200474 915.03006091 336.05237856 916.7652175 333.7109375 918.48046875 C332.99752197 919.00882324 332.28410645 919.53717773 331.54907227 920.08154297 C323.7573137 925.80689046 315.781323 931.26055538 307.76171875 936.66015625 C305.70963917 938.04253447 303.66282807 939.4323396 301.6171875 940.82421875 C289.4275059 949.08070502 277.02658527 957.23835575 263.7265625 963.59765625 C261.26264884 964.8055749 258.85503618 966.05441848 256.4453125 967.36328125 C243.46130879 974.40185212 230.12076653 980.41302245 216.5234375 986.16796875 C215.80736328 986.47186523 215.09128906 986.77576172 214.35351562 987.08886719 C210.11125625 988.87450082 205.82843171 990.54128386 201.5234375 992.16796875 C200.68570801 992.48942871 199.84797852 992.81088867 198.98486328 993.14208984 C162.40023902 1007.10125709 124.2965838 1015.9588151 85.5234375 1021.16796875 C84.2873877 1021.33570801 84.2873877 1021.33570801 83.02636719 1021.50683594 C67.73898365 1023.54386855 52.50126128 1024.32458495 37.0859375 1024.30078125 C35.66739892 1024.30145846 34.24886046 1024.3024319 32.83032227 1024.30368042 C29.88589349 1024.30513786 26.94149546 1024.30306685 23.99707031 1024.29833984 C20.27286835 1024.29264379 16.54873852 1024.29593344 12.82453918 1024.30191231 C9.90384402 1024.3055714 6.98316521 1024.30435515 4.06246948 1024.30178452 C2.03782096 1024.30081795 0.01317173 1024.30378891 -2.01147461 1024.30691528 C-54.92703008 1024.17542458 -110.6956672 1013.04614674 -159.77294922 993.24755859 C-162.50335123 992.15727164 -165.2448472 991.10149979 -167.9921875 990.0546875 C-177.45359183 986.4364191 -186.74164536 982.79500119 -195.72265625 978.09375 C-198.67860789 976.55033331 -201.67718294 975.12050327 -204.69921875 973.7109375 C-236.08849648 959.06652232 -265.05920589 940.48606723 -292.60839844 919.55273438 C-294.52602646 918.13130388 -296.48499116 916.78390556 -298.453125 915.43359375 C-299.45085937 914.6859375 -300.44859375 913.93828125 -301.4765625 913.16796875 C-301.4765625 912.50796875 -301.4765625 911.84796875 -301.4765625 911.16796875 C-302.023125 910.92949219 -302.5696875 910.69101562 -303.1328125 910.4453125 C-306.05818397 908.85098505 -308.42194583 906.86750385 -310.9765625 904.73046875 C-314.81783639 901.51458579 -314.81783639 901.51458579 -318.8203125 898.5078125 C-319.64015625 897.84458984 -319.64015625 897.84458984 -320.4765625 897.16796875 C-320.4765625 896.50796875 -320.4765625 895.84796875 -320.4765625 895.16796875 C-321.06123291 894.9047583 -321.64590332 894.64154785 -322.24829102 894.37036133 C-324.58032805 893.11197605 -326.2096266 891.74986493 -328.12890625 889.9296875 C-328.81678223 889.28064453 -329.5046582 888.63160156 -330.21337891 887.96289062 C-331.30271729 886.9197168 -331.30271729 886.9197168 -332.4140625 885.85546875 C-333.16606934 885.14068359 -333.91807617 884.42589844 -334.69287109 883.68945312 C-359.86695862 859.67346969 -359.86695862 859.67346969 -362.46484375 854.015625 C-363.39662325 851.81671175 -363.39662325 851.81671175 -366.4765625 851.16796875 C-367.6875 849.71484375 -367.6875 849.71484375 -368.8515625 847.91796875 C-371.09064022 844.62005005 -373.61545782 841.95378121 -376.4765625 839.16796875 C-379.4765625 835.54727909 -379.4765625 835.54727909 -379.4765625 833.16796875 C-380.1365625 833.16796875 -380.7965625 833.16796875 -381.4765625 833.16796875 C-383.39502365 830.83060311 -385.1974757 828.48359624 -386.9765625 826.04296875 C-387.51265137 825.3166626 -388.04874023 824.59035645 -388.60107422 823.84204102 C-390.23418989 821.62304449 -391.85682303 819.39674231 -393.4765625 817.16796875 C-393.93192383 816.54422363 -394.38728516 815.92047852 -394.85644531 815.27783203 C-400.93612063 806.93503803 -406.71766366 798.41068779 -412.3984375 789.79248047 C-413.81879589 787.65229371 -415.27571646 785.53756414 -416.7265625 783.41796875 C-419.26526882 779.60289627 -421.44457178 775.65455599 -423.59375 771.609375 C-425.07743463 768.89749501 -426.60226648 766.23217437 -428.171875 763.5703125 C-435.03957295 751.8798998 -440.95493482 740.02727757 -446.39208984 727.61132812 C-447.62934358 724.82374699 -448.92969533 722.07156608 -450.24975586 719.32250977 C-470.75064892 676.49332962 -483.25362543 628.37147029 -489.18847656 581.4375 C-489.4672158 579.2416017 -489.76261501 577.04856705 -490.0625 574.85546875 C-491.97864537 560.47765513 -492.63722545 546.18458697 -492.64453125 531.69140625 C-492.64776037 530.14889498 -492.65112554 528.60638399 -492.65461731 527.06387329 C-492.66055095 523.85198255 -492.66246327 520.64011848 -492.66186523 517.42822266 C-492.66178412 514.18207205 -492.66871257 510.93606301 -492.68237305 507.68994141 C-492.755348 490.07986406 -492.69294981 472.67024062 -490.4765625 455.16796875 C-490.23891044 453.00398004 -490.00183138 450.83992824 -489.765625 448.67578125 C-485.25943867 411.28888405 -476.50631801 375.33107156 -464.2890625 339.73046875 C-463.88526367 338.55250732 -463.48146484 337.3745459 -463.06542969 336.16088867 C-460.46775105 328.70822724 -457.60299056 321.41409346 -454.4765625 314.16796875 C-454.14696533 313.40282959 -453.81736816 312.63769043 -453.4777832 311.84936523 C-439.86314879 280.54038713 -439.86314879 280.54038713 -432.8046875 269.3515625 C-431.38249671 267.01331352 -430.17443673 264.6281598 -428.9765625 262.16796875 C-425.0384625 254.1287264 -420.18521637 246.64921129 -415.34765625 239.12890625 C-413.97700176 236.9598956 -412.63895269 234.78440126 -411.32421875 232.58203125 C-410.96440918 231.98302002 -410.60459961 231.38400879 -410.23388672 230.7668457 C-409.20930254 229.05600992 -408.19236141 227.34060385 -407.17578125 225.625 C-406.61503906 224.81417969 -406.05429687 224.00335938 -405.4765625 223.16796875 C-404.8165625 223.16796875 -404.1565625 223.16796875 -403.4765625 223.16796875 C-403.0734082 222.06412842 -403.0734082 222.06412842 -402.66210938 220.93798828 C-401.51237237 218.2516382 -400.2338707 216.19404996 -398.5078125 213.84765625 C-397.93675781 213.06519531 -397.36570312 212.28273437 -396.77734375 211.4765625 C-396.18308594 210.67347656 -395.58882813 209.87039062 -394.9765625 209.04296875 C-393.79913169 207.43645253 -392.6220344 205.8296918 -391.4453125 204.22265625 C-390.66317383 203.16280518 -390.66317383 203.16280518 -389.86523438 202.08154297 C-388.69667425 200.47128026 -387.58018991 198.82340986 -386.4765625 197.16796875 C-385.8165625 197.16796875 -385.1565625 197.16796875 -384.4765625 197.16796875 C-384.23035156 196.43964844 -383.98414063 195.71132812 -383.73046875 194.9609375 C-382.34683171 191.87900453 -380.71513099 189.94023162 -378.4140625 187.48046875 C-375.61363137 184.55365074 -375.61363137 184.55365074 -373.4765625 181.16796875 C-372.8165625 181.16796875 -372.1565625 181.16796875 -371.4765625 181.16796875 C-371.2290625 180.61109375 -370.9815625 180.05421875 -370.7265625 179.48046875 C-369.24731432 176.74385962 -367.54188811 174.49146006 -365.4765625 172.16796875 C-364.8165625 172.16796875 -364.1565625 172.16796875 -363.4765625 172.16796875 C-363.22769287 171.60182861 -362.97882324 171.03568848 -362.72241211 170.45239258 C-358.13473199 162.04029716 -349.57006565 155.10096775 -342.83764648 148.39868164 C-341.40816533 146.97459383 -339.98415739 145.54518831 -338.56054688 144.11523438 C-323.59244882 129.16796875 -323.59244882 129.16796875 -320.4765625 129.16796875 C-320.1465625 128.17796875 -319.8165625 127.18796875 -319.4765625 126.16796875 C-314.01144622 121.16796875 -314.01144622 121.16796875 -311.4765625 121.16796875 C-311.4765625 120.50796875 -311.4765625 119.84796875 -311.4765625 119.16796875 C-309.94703374 117.79314423 -308.35133344 116.49130978 -306.7265625 115.23046875 C-305.40398437 114.19599609 -305.40398437 114.19599609 -304.0546875 113.140625 C-303.20390625 112.48964844 -302.353125 111.83867188 -301.4765625 111.16796875 C-300.74953125 110.58917969 -300.0225 110.01039062 -299.2734375 109.4140625 C-297.4765625 108.16796875 -297.4765625 108.16796875 -295.4765625 108.16796875 C-295.4765625 107.50796875 -295.4765625 106.84796875 -295.4765625 106.16796875 C-293.91943359 104.81103516 -293.91943359 104.81103516 -291.75 103.26953125 C-290.96496094 102.7075 -290.17992187 102.14546875 -289.37109375 101.56640625 C-288.53964844 100.98117188 -287.70820313 100.3959375 -286.8515625 99.79296875 C-286.04332031 99.21546875 -285.23507812 98.63796875 -284.40234375 98.04296875 C-282.10251922 96.40504494 -279.79250747 94.78299458 -277.4765625 93.16796875 C-276.86458008 92.73709961 -276.25259766 92.30623047 -275.62207031 91.86230469 C-271.7170636 89.16796875 -271.7170636 89.16796875 -269.4765625 89.16796875 C-269.4765625 88.50796875 -269.4765625 87.84796875 -269.4765625 87.16796875 C-267.65210821 85.90418563 -265.76249311 84.73424041 -263.8515625 83.60546875 C-262.65275936 82.88950306 -261.45487297 82.17200057 -260.2578125 81.453125 C-259.63390625 81.07945801 -259.01 80.70579102 -258.3671875 80.32080078 C-255.31836833 78.4617455 -252.33997178 76.49702418 -249.3515625 74.54296875 C-244.48472248 71.38644115 -239.54956961 68.46334277 -234.421875 65.75 C-232.22566243 64.57033675 -230.06338727 63.36458549 -227.90625 62.1171875 C-210.45803536 52.04513047 -192.12515235 44.16169224 -173.53515625 36.44580078 C-171.54807355 35.6156291 -169.56593112 34.77349531 -167.58984375 33.91748047 C-159.3343987 30.3712648 -150.90009954 27.52767158 -142.3515625 24.79296875 C-141.60845825 24.55430084 -140.865354 24.31563293 -140.09973145 24.06973267 C-110.12613934 14.46542813 -79.71966441 7.22462151 -48.4765625 3.16796875 C-47.36667969 3.02149902 -47.36667969 3.02149902 -46.234375 2.87207031 C-30.82783236 0.86516542 -15.52738979 0.00782713 0 0 Z " fill="#127FFE" transform="translate(492.4765625,-0.16796875)"/>
<path d="M0 0 C9.4233861 6.13185885 14.4517225 13.92346475 19.5 23.8125 C20.1447665 25.04878031 20.79087093 26.28436365 21.43823242 27.51928711 C23.10549616 30.70829589 24.75503677 33.90611395 26.39996338 37.10668945 C27.95874095 40.13349885 29.532735 43.15229289 31.10546875 46.171875 C33.4705057 50.71778488 35.82847625 55.26723675 38.1796875 59.8203125 C44.62143239 72.28955437 51.19803769 84.68420604 57.83395386 97.05105591 C62.82632614 106.35650155 67.81692327 115.66295147 72.75 125 C73.20818115 125.85964355 73.6663623 126.71928711 74.13842773 127.60498047 C74.55423096 128.39533691 74.97003418 129.18569336 75.3984375 130 C75.93863525 131.0209375 75.93863525 131.0209375 76.48974609 132.0625 C80.18876903 140.15832074 79.03206678 150.1852704 76.6171875 158.48828125 C73.19801611 165.40188881 67.72086892 170.93239873 62.26171875 176.2734375 C61.60669876 176.92325592 60.95167877 177.57307434 60.27680969 178.24258423 C58.21014665 180.29161644 56.13683848 182.33374083 54.0625 184.375 C51.97125702 186.43860329 49.88151866 188.50367696 47.79463196 190.57168579 C46.50195985 191.85211519 45.20662372 193.12986184 43.90837097 194.40463257 C39.21021782 198.99240117 39.21021782 198.99240117 38.1640625 205.1328125 C38.22502251 209.76023114 39.13532881 213.563261 40.75 217.875 C41.01329102 218.59478027 41.27658203 219.31456055 41.54785156 220.05615234 C47.14356672 234.73307604 55.24442581 248.27192618 64.375 261 C64.84164062 261.6506543 65.30828125 262.30130859 65.7890625 262.97167969 C79.899627 282.48689222 96.19705285 300.00983663 113.23095703 316.98632812 C115.14082994 318.89078505 117.04522149 320.80060819 118.94921875 322.7109375 C124.91993312 328.68514255 130.89191405 334.57581809 137.375 340 C138.29023438 340.79664063 139.20546875 341.59328125 140.1484375 342.4140625 C161.87745494 360.88046471 189.72097591 382.75485944 218.8046875 386.3125 C225.70448304 385.47361908 230.84677873 378.7592895 235.44140625 374.05859375 C236.19791977 373.29450699 236.95443329 372.53042023 237.73387146 371.74317932 C240.13998136 369.31273534 242.53950802 366.87595223 244.9375 364.4375 C248.09968078 361.22208279 251.26843976 358.01336413 254.44140625 354.80859375 C255.52283653 353.70226845 255.52283653 353.70226845 256.62611389 352.57359314 C265.88349094 343.2264071 273.72615103 341.83325735 286.65234375 341.63671875 C297.12059004 342.65827899 305.29275503 347.52416141 314.125 352.875 C315.41351599 353.64460691 316.70266914 354.41314797 317.99243164 355.18066406 C320.57974425 356.72219153 323.16366123 358.26916251 325.74462891 359.82128906 C330.74882569 362.8287665 335.78168839 365.78734451 340.8125 368.75 C342.59144162 369.80158312 344.37009027 370.85366202 346.1484375 371.90625 C347.01307617 372.41800781 347.87771484 372.92976563 348.76855469 373.45703125 C350.5061849 374.48567708 352.2438151 375.51432292 353.98144531 376.54296875 C356.63317797 378.1124624 359.28528475 379.68132202 361.9375 381.25 C362.82171631 381.77335937 363.70593262 382.29671875 364.61694336 382.8359375 C369.9726688 386.00212611 375.33930513 389.1488748 380.71484375 392.28125 C381.99734645 393.02956756 383.27981708 393.77794009 384.56225586 394.52636719 C386.43496445 395.6192733 388.308182 396.71122944 390.18362427 397.79943848 C396.85672901 401.67149117 403.47202974 405.62289632 409.98828125 409.75390625 C410.5668689 410.11615295 411.14545654 410.47839966 411.74157715 410.85162354 C416.52386374 413.91823702 420.13753781 417.35364223 423.375 422 C424.014375 422.9075 424.65375 423.815 425.3125 424.75 C427.57592327 431.67341236 427.46627454 438.08293559 424.33865356 444.67170715 C421.48319006 450.2347278 417.79191746 454.28408681 413.36279297 458.64331055 C412.5701857 459.44307312 411.77757843 460.24283569 410.96095276 461.0668335 C408.35859278 463.68598949 405.73863741 466.28668038 403.1171875 468.88671875 C401.28900139 470.71573449 399.46163197 472.54556688 397.63504028 474.37617493 C393.81148073 478.20258649 389.97960413 482.02036458 386.140625 485.83129883 C381.72540943 490.21450424 377.32640378 494.61347583 372.93580711 499.02133149 C368.68483046 503.28827011 364.4224765 507.54362794 360.15506363 511.79413795 C358.35269776 513.59134856 356.5531145 515.39135452 354.75646591 517.19428062 C352.23516533 519.72108001 349.7011937 522.23447616 347.16357422 524.74487305 C346.07051216 525.84772392 346.07051216 525.84772392 344.95536804 526.97285461 C329.2339801 542.41099955 314.11896605 545.44312225 292.93588257 545.30036926 C271.37986899 545.02896235 250.86252731 540.48192954 230.375 534 C228.90716064 533.53787109 228.90716064 533.53787109 227.40966797 533.06640625 C220.22718323 530.74338147 213.30716173 527.9805332 206.375 525 C204.95525879 524.40469482 204.95525879 524.40469482 203.50683594 523.79736328 C157.99915939 504.69719907 114.99157607 477.76676361 77.6315918 445.50292969 C73.95228195 442.32956891 70.22293816 439.23456972 66.4375 436.1875 C62.78385055 433.22291601 59.40187817 430.15986621 56.14439392 426.76844788 C54.43701342 425.06198027 52.67063981 423.50414034 50.83032227 421.94311523 C45.57916512 417.37680354 40.68977239 412.45941069 35.77734375 407.53515625 C34.77436097 406.53284919 33.77122997 405.53069044 32.76795959 404.52867126 C30.67790862 402.44008466 28.58965112 400.34972612 26.50268555 398.25805664 C23.8480213 395.5976959 21.18889116 392.94185158 18.52838802 390.28733158 C16.45975051 388.22233394 14.39353301 386.15492796 12.32800484 384.0868206 C11.34927995 383.10743589 10.36983194 382.12877319 9.38960075 381.15089607 C3.83208326 375.60380396 -1.52636865 369.97113129 -6.625 364 C-8.07945517 362.39231627 -9.53720895 360.78760285 -11 359.1875 C-15.73076093 353.93819023 -20.19497052 348.50376055 -24.625 343 C-25.55038408 341.86686303 -26.47618393 340.73406551 -27.40234375 339.6015625 C-61.18998158 298.08509385 -90.10599866 250.68539704 -107.625 200 C-107.87830078 199.27055176 -108.13160156 198.54110352 -108.39257812 197.78955078 C-116.50099836 174.08223947 -121.7568815 149.94565173 -121.875 124.875 C-121.895625 123.77285156 -121.91625 122.67070312 -121.9375 121.53515625 C-121.97115061 114.44329043 -121.24028912 108.58869943 -118.625 102 C-118.28239639 101.13406723 -117.93979279 100.26813446 -117.58680725 99.3759613 C-111.82824733 87.08009676 -101.76730819 78.27491381 -92.26171875 68.83984375 C-90.34288485 66.91966884 -88.42765467 64.99591049 -86.51191711 63.07264709 C-82.51059212 59.06046692 -78.4969212 55.06096664 -74.47583008 51.06860352 C-69.84453609 46.47001874 -65.2353424 41.85012798 -60.63689774 37.21871275 C-56.66468387 33.21917668 -52.68077968 29.23156842 -48.6870597 25.25350672 C-46.31187842 22.8876197 -43.94214216 20.51695669 -41.58038902 18.13761711 C-38.94637563 15.48829749 -36.29376906 12.85908092 -33.63549805 10.23413086 C-32.86893387 9.4554213 -32.10236969 8.67671173 -31.31257629 7.87440491 C-22.84175997 -0.40159737 -11.40801703 -5.77249575 0 0 Z " fill="#FEFEFE" transform="translate(359.625,240)"/>
</svg>
