<?xml version="1.0" encoding="UTF-8"?>
<svg version="1.1" xmlns="http://www.w3.org/2000/svg" width="874" height="888">
<path d="M0 0 C1.20285645 0.17692383 2.40571289 0.35384766 3.64501953 0.53613281 C42.32006803 6.39277021 78.91674774 17.13187053 115 32 C116.39407047 32.55974271 117.78852537 33.11853031 119.18359375 33.67578125 C129.13650361 37.76050148 138.55871965 42.86645269 148 48 C148.70447266 48.3805957 149.40894531 48.76119141 150.13476562 49.15332031 C160.0402532 54.52393702 169.53887361 60.41092883 178.93164062 66.63134766 C180.94455615 67.9633123 182.9637429 69.28524901 184.984375 70.60546875 C191.97665767 75.19517519 198.7610643 79.95685649 205.41015625 85.03515625 C207.55497248 86.66236977 209.72266662 88.22105051 211.9375 89.75 C214.94986562 91.96316658 217.36095866 94.36095866 220 97 C222.37651996 98.853766 224.77930758 100.66307948 227.20703125 102.44921875 C227.79871094 102.96097656 228.39039063 103.47273438 229 104 C229 104.66 229 105.32 229 106 C229.8353125 106.37125 229.8353125 106.37125 230.6875 106.75 C234.55701002 108.84162704 238.11809266 111.66305466 241 115 C241 115.66 241 116.32 241 117 C241.54011719 117.21398437 242.08023438 117.42796875 242.63671875 117.6484375 C245.85043281 119.48636323 248.24917436 121.99669319 250.8125 124.625 C251.3480249 125.16769531 251.8835498 125.71039063 252.43530273 126.26953125 C255.8038609 129.70698131 259.04838221 133.22063529 262.16796875 136.88671875 C264.04939889 139.05698252 265.99019594 141.16573334 267.94433594 143.27050781 C275.82546499 151.76491244 283.16002765 160.64376839 290 170 C290.58007812 170.78375 291.16015625 171.5675 291.7578125 172.375 C299.99894228 183.5856057 308.02434696 194.95302649 315 207 C315.95649558 208.5844442 316.91489207 210.16774213 317.875 211.75 C318.9184245 213.49895247 319.9599679 215.24902808 321 217 C321.59554687 217.99128906 322.19109375 218.98257813 322.8046875 220.00390625 C339.71733815 248.76899681 351.30310086 280.48935249 361.1875 312.25 C361.66932739 313.79312866 361.66932739 313.79312866 362.16088867 315.36743164 C366.31476665 328.93705267 369.50280773 342.52879549 371.75537109 356.53198242 C372.11904382 358.77575184 372.5022204 361.01557801 372.88671875 363.25585938 C376.70584969 386.21180909 377.38203552 409.39673063 377.3125 432.625 C377.31134186 433.83658783 377.31018372 435.04817566 377.30899048 436.29647827 C377.27248804 455.69552948 376.53491808 474.75876468 374 494 C373.88785156 494.90105469 373.77570312 495.80210937 373.66015625 496.73046875 C372.96518725 502.19584221 372.03442443 507.58982143 371 513 C370.74839111 514.39895508 370.74839111 514.39895508 370.49169922 515.82617188 C367.56304121 531.90688727 363.26766805 547.40182572 358.4375 563 C358.15827698 563.90541534 357.87905396 564.81083069 357.59136963 565.74368286 C354.50255126 575.7108872 351.23283682 585.44916634 347 595 C346.26970554 596.73856465 345.54182206 598.47814409 344.81640625 600.21875 C335.95694891 621.0959973 326.2536284 641.87691326 314 661 C313.2907301 662.13483185 312.58241238 663.27025931 311.875 664.40625 C306.80365255 672.48532901 301.35484723 680.28153338 295.8125 688.04296875 C292.90389892 692.11637489 290.08747756 696.24981589 287.3046875 700.41015625 C286.65886719 701.19712891 286.65886719 701.19712891 286 702 C285.34 702 284.68 702 284 702 C283.75636719 702.72574219 283.51273438 703.45148437 283.26171875 704.19921875 C281.84485241 707.34439883 280.16884189 709.30204281 277.8125 711.8125 C276.9978125 712.69164062 276.183125 713.57078125 275.34375 714.4765625 C274.18359375 715.72566406 274.18359375 715.72566406 273 717 C271.9318905 718.22429532 270.86897408 719.45315018 269.8125 720.6875 C251.59290305 741.57647976 251.59290305 741.57647976 242 750 C241.34 750 240.68 750 240 750 C239.67 750.99 239.34 751.98 239 753 C237.6796875 754.3671875 237.6796875 754.3671875 235.875 755.875 C235.15828125 756.48214844 234.4415625 757.08929687 233.703125 757.71484375 C232.36507813 758.84599609 232.36507813 758.84599609 231 760 C229.82645749 761.02022047 228.65471562 762.04251433 227.484375 763.06640625 C217.61730844 771.6948653 207.63763223 779.95949 196.90795898 787.50073242 C194.26609167 789.35974035 191.70313385 791.24413608 189.20703125 793.296875 C187 795 187 795 185 795 C184.67 795.66 184.34 796.32 184 797 C182.36816893 798.05589069 180.69207001 799.0436126 179 800 C177.91203125 800.62132812 176.8240625 801.24265625 175.703125 801.8828125 C174.80883789 802.39183105 174.80883789 802.39183105 173.89648438 802.91113281 C171.21350855 804.45156435 168.55351418 806.02988786 165.89208984 807.60717773 C162.97758631 809.33216256 160.05556731 811.04412973 157.13183594 812.75341797 C155.7694295 813.55007936 154.40800124 814.34841748 153.04785156 815.14892578 C115.4889304 837.17998814 73.4790601 851.87582498 31 861 C30.23187988 861.17337891 29.46375977 861.34675781 28.67236328 861.52539062 C4.16630266 867.02265438 -21.8980944 869.59098629 -47 870 C-47.86028809 870.01514648 -48.72057617 870.03029297 -49.60693359 870.04589844 C-56.40684554 870.1449556 -63.20038022 870.10140636 -70 870 C-71.0401123 869.98743164 -72.08022461 869.97486328 -73.15185547 869.96191406 C-105.802262 869.47659026 -138.49732627 864.61651521 -170 856 C-170.98484375 855.73396973 -171.9696875 855.46793945 -172.984375 855.19384766 C-176.34604162 854.28323032 -179.70472711 853.36236661 -183.0625 852.4375 C-184.13443604 852.14439941 -185.20637207 851.85129883 -186.31079102 851.54931641 C-191.74883603 850.03034771 -196.83088102 848.29535672 -202 846 C-203.40131427 845.5154318 -204.80807811 845.04645391 -206.21875 844.58984375 C-231.59686223 836.31087766 -255.97721074 824.43287552 -279 811 C-280.22759033 810.2884375 -280.22759033 810.2884375 -281.47998047 809.5625 C-292.39596781 803.21258273 -302.85973744 796.5221847 -313 789 C-314.89566162 787.64559297 -316.79148625 786.29141405 -318.6875 784.9375 C-334.64095107 773.28636445 -350.03422463 759.96577537 -364 746 C-364.845625 745.34 -365.69125 744.68 -366.5625 744 C-369.14477053 741.88121393 -370.94890086 739.62797078 -373 737 C-373.804375 736.195625 -374.60875 735.39125 -375.4375 734.5625 C-378.15440676 731.84559324 -380.54118047 728.95058343 -383 726 C-383.7425 725.2575 -384.485 724.515 -385.25 723.75 C-393.53210781 715.46789219 -400.58203419 706.46659749 -407.49462891 697.04492188 C-408.92675194 695.09950142 -410.37285117 693.16546205 -411.82421875 691.234375 C-423.52660921 675.59725571 -433.56107946 659.0860779 -443 642 C-443.69609375 640.74775635 -443.69609375 640.74775635 -444.40625 639.47021484 C-477.501048 579.54465555 -494.10641688 511.20612146 -496 443 C-496.02336426 442.17516113 -496.04672852 441.35032227 -496.07080078 440.50048828 C-497.5998102 376.44912737 -483.72215716 312.50485349 -458 254 C-457.55672363 252.97471191 -457.55672363 252.97471191 -457.10449219 251.92871094 C-445.0792412 224.22218027 -429.06060599 198.14077015 -411 174 C-410.55076172 173.39768555 -410.10152344 172.79537109 -409.63867188 172.17480469 C-407.72498188 169.61104442 -405.80365906 167.05347407 -403.87109375 164.50390625 C-402.21309954 162.28517079 -400.62885146 160.03369503 -399.0625 157.75 C-398.381875 156.8425 -397.70125 155.935 -397 155 C-396.34 155 -395.68 155 -395 155 C-394.63455078 154.15695313 -394.63455078 154.15695313 -394.26171875 153.296875 C-392.75819064 150.55980215 -390.93300252 148.54204059 -388.8125 146.25 C-385.24732642 142.3743113 -381.78753119 138.43851248 -378.41015625 134.3984375 C-377 133 -377 133 -375 133 C-374.89421631 132.40219727 -374.78843262 131.80439453 -374.67944336 131.18847656 C-373.90163624 128.68317186 -373.04734656 127.73935023 -371.12890625 125.984375 C-370.55462891 125.45585937 -369.98035156 124.92734375 -369.38867188 124.3828125 C-368.78603516 123.84398438 -368.18339844 123.30515625 -367.5625 122.75 C-366.96373047 122.19570312 -366.36496094 121.64140625 -365.74804688 121.0703125 C-361.27170567 117 -361.27170567 117 -359 117 C-358.67 116.01 -358.34 115.02 -358 114 C-356.50390625 112.4921875 -356.50390625 112.4921875 -354.5625 110.875 C-351.43490898 108.22900264 -348.38646468 105.52751618 -345.375 102.75 C-339.76200349 97.6931693 -333.87279977 93.04324132 -327.8828125 88.44580078 C-326.63024713 87.48396311 -325.38022738 86.51880102 -324.1328125 85.55029297 C-301.63327625 68.09798153 -276.83543355 51.91986309 -250.98291016 39.92138672 C-249.6088826 39.28292575 -248.23900587 38.63548434 -246.87255859 37.98095703 C-206.31623006 18.55749591 -162.39574558 6.41232947 -118 0 C-116.89881836 -0.16661133 -115.79763672 -0.33322266 -114.66308594 -0.50488281 C-77.51400943 -5.92409271 -37.12653586 -5.54031434 0 0 Z " fill="#4BA1DF" transform="translate(497,3)"/>
<path d="M0 0 C0.72955902 0.12206818 1.45911804 0.24413635 2.21078491 0.36990356 C48.31792536 8.2489182 88.28704718 32.42934324 121.75 64.3125 C122.59949219 65.10914063 123.44898438 65.90578125 124.32421875 66.7265625 C130.67826459 72.85118439 136.11995419 79.49397437 141.41064453 86.53320312 C142.27209227 87.67761273 143.13978106 88.81736501 144.01513672 89.95117188 C168.74394922 122.00740323 180.67135064 160.65422335 185.75 200.3125 C185.84571289 200.98498779 185.94142578 201.65747559 186.04003906 202.3503418 C187.00018033 209.70540246 186.99362028 217.09292781 187 224.5 C187.00067474 225.2066983 187.00134949 225.91339661 187.00204468 226.64151001 C186.92755387 276.01638424 169.13451619 324.93085467 137.66796875 362.9921875 C136.39155527 364.53636185 135.14363207 366.10454377 133.92578125 367.6953125 C122.52370431 382.34552531 108.76911844 395.43326677 93.75 406.3125 C92.52023437 407.23482422 92.52023437 407.23482422 91.265625 408.17578125 C74.82125984 420.17796052 56.12653354 429.79033908 36.84375 436.26953125 C34.09803728 437.19516925 31.43865221 438.23618828 28.75 439.3125 C-9.04115979 453.00414258 -51.78405767 449.48312097 -91.25 449.3125 C-91.37425354 448.63929718 -91.49850708 447.96609436 -91.62652588 447.27249146 C-91.79650085 446.3822226 -91.96647583 445.49195374 -92.14160156 444.57470703 C-92.3071051 443.69525421 -92.47260864 442.81580139 -92.64312744 441.90969849 C-93.54852624 438.03491397 -95.15309498 434.69164912 -97 431.1875 C-97.35416992 430.49809326 -97.70833984 429.80868652 -98.07324219 429.09838867 C-100.68787516 424.1172653 -103.60576387 419.60749258 -107.25 415.3125 C-107.84554687 414.51972656 -108.44109375 413.72695313 -109.0546875 412.91015625 C-119.52151573 400.52503032 -137.26775682 391.34142619 -153.25 389.3125 C-157.29217309 389.11812146 -161.32864219 389.08167705 -165.375 389.0625 C-166.97214844 389.0315625 -166.97214844 389.0315625 -168.6015625 389 C-188.80774047 388.90191176 -206.52063579 397.56490773 -220.8125 411.5 C-224.07683476 414.90233916 -226.88847067 418.2334948 -229.25 422.3125 C-234.05162154 420.90804408 -238.18233836 418.83305826 -242.4375 416.25 C-243.0960498 415.85151855 -243.75459961 415.45303711 -244.43310547 415.04248047 C-250.48772576 411.2990087 -255.87012331 406.96786608 -261.25 402.3125 C-262.25289062 401.49265625 -263.25578125 400.6728125 -264.2890625 399.828125 C-283.71144946 383.9359969 -308.44173895 361.02564621 -316.25 336.3125 C-316.27734375 334.17578125 -316.27734375 334.17578125 -315.25 332.3125 C-312.44140625 330.85546875 -312.44140625 330.85546875 -308.8125 329.5 C-302.25690864 326.90749706 -296.81592533 323.68285653 -291.25 319.3125 C-290.63898438 318.86519531 -290.02796875 318.41789062 -289.3984375 317.95703125 C-280.38820273 310.94221377 -274.27899768 300.84499786 -270.25 290.3125 C-269.94320312 289.5184375 -269.63640625 288.724375 -269.3203125 287.90625 C-265.96105296 278.56430917 -266.09497373 269.20242057 -266.0390625 259.375 C-266.02604996 258.00902543 -266.01222878 256.64305836 -265.99765015 255.27709961 C-265.93683864 249.52725096 -265.88266373 243.7774185 -265.84863281 238.02734375 C-265.73783477 220.28185854 -265.05883718 202.87697264 -262.25 185.3125 C-262.11026764 184.43428589 -261.97053528 183.55607178 -261.8265686 182.65124512 C-256.79504495 151.64444875 -244.29648091 121.96283523 -226.25 96.3125 C-225.56421875 95.31476563 -224.8784375 94.31703125 -224.171875 93.2890625 C-218.98018614 85.92361774 -213.18351471 79.08371147 -207.25 72.3125 C-206.80253418 71.80041992 -206.35506836 71.28833984 -205.89404297 70.76074219 C-179.92621471 41.23242559 -145.81790973 19.0398255 -108.25 7.3125 C-107.53714844 7.08965332 -106.82429687 6.86680664 -106.08984375 6.63720703 C-92.70523914 2.56376185 -79.06432708 0.56963422 -65.22167969 -1.28613281 C-63.08982957 -1.57406919 -60.96139299 -1.88772474 -58.83569336 -2.21801758 C-39.48018425 -4.75227536 -19.15595143 -3.27164754 0 0 Z " fill="#FEFEFE" transform="translate(491.25,174.6875)"/>
<path d="M0 0 C2.79067135 -0.00967639 5.58059492 -0.04079014 8.37109375 -0.07226562 C19.6831558 -0.13814016 30.42830883 0.76548708 41.54667664 2.84732056 C44.53051041 3.393958 47.52443625 3.87009988 50.52033997 4.34538269 C57.3719494 5.45832021 63.89476511 7.03088942 70.5 9.20507812 C75.02419754 10.6725351 79.61358878 11.88445553 84.20703125 13.11523438 C88.53560256 14.5128 92.56586931 16.33523918 96.69140625 18.24023438 C97.68430664 18.69124512 98.67720703 19.14225586 99.70019531 19.60693359 C103.03440278 21.12234545 106.36322506 22.6491374 109.69140625 24.17773438 C110.81546875 24.69013672 111.93953125 25.20253906 113.09765625 25.73046875 C119.45528715 28.65304791 125.64191996 31.72318487 131.69140625 35.24023438 C132.94824219 35.95759766 132.94824219 35.95759766 134.23046875 36.68945312 C163.23403211 53.90692426 189.44624755 76.35925305 208.69140625 104.24023438 C209.37106445 105.20147217 209.37106445 105.20147217 210.06445312 106.18212891 C234.93318458 141.56744372 251.16938174 184.2849826 256.296875 227.17382812 C256.61964875 230.10552748 256.61964875 230.10552748 257.20336914 232.3984375 C257.85441558 236.18942328 257.87310047 239.94053525 257.89453125 243.77539062 C257.90498474 245.01601006 257.90498474 245.01601006 257.91564941 246.2816925 C257.93305491 248.95542469 257.93937527 251.6289478 257.94140625 254.30273438 C257.94241333 255.21106018 257.94342041 256.11938599 257.94445801 257.05523682 C257.93468362 270.03533704 257.5049295 282.52584548 254.69140625 295.24023438 C254.38547789 296.7438887 254.08081583 298.24780115 253.77734375 299.75195312 C252.8395523 304.27106269 251.7871176 308.75707738 250.69140625 313.24023438 C250.50320313 314.01753906 250.315 314.79484375 250.12109375 315.59570312 C241.37406292 351.34190245 225.66941484 386.06495798 201.69140625 414.24023438 C200.81453413 415.30096131 199.93827606 416.36219605 199.0625 417.42382812 C188.42497912 430.20005248 176.89221607 442.09431042 163.69140625 452.24023438 C162.50243768 453.16189464 161.31364508 454.08378195 160.125 455.00585938 C156.9905851 457.43073001 153.84419085 459.8393062 150.69140625 462.24023438 C151.01625 464.03654297 151.01625 464.03654297 151.34765625 465.86914062 C155.41836213 489.25276248 154.0457666 511.0680373 140.87890625 531.55273438 C134.29507352 540.84755706 127.34413947 548.16425036 117.69140625 554.24023438 C116.91152344 554.76359375 116.13164063 555.28695312 115.328125 555.82617188 C99.50029094 566.03266389 78.96407395 570.14876291 60.3984375 566.48242188 C56.43300348 565.58573197 52.57020224 564.45686219 48.69140625 563.24023438 C47.79035156 562.96308594 46.88929688 562.6859375 45.9609375 562.40039062 C29.1848172 556.46169877 16.14099774 543.98357607 6.69140625 529.24023438 C5.98371094 528.2425 5.98371094 528.2425 5.26171875 527.22460938 C1.31224457 521.47567063 0.70444113 517.62136229 -1.30859375 510.24023438 C-16.81859375 510.24023438 -32.32859375 510.24023438 -48.30859375 510.24023438 C-48.63859375 512.55023437 -48.96859375 514.86023438 -49.30859375 517.24023438 C-52.3591001 534.47707608 -65.04050797 549.84020518 -78.79296875 559.84570312 C-96.7479701 572.37534474 -118.24655123 576.30681917 -139.76708984 572.84472656 C-144.51091179 571.79846484 -148.84925737 570.15137854 -153.30859375 568.24023438 C-154.48164063 567.77875 -155.6546875 567.31726563 -156.86328125 566.84179688 C-175.03096028 558.87067712 -188.3854286 542.48095814 -196.08984375 524.52539062 C-201.19292323 510.76997445 -202.24993688 494.66230393 -199.30859375 480.24023438 C-200.13230469 480.01464844 -200.95601563 479.7890625 -201.8046875 479.55664062 C-206.0880785 477.94738447 -209.57783697 475.70499332 -213.37109375 473.17773438 C-214.11625244 472.68748779 -214.86141113 472.19724121 -215.62915039 471.69213867 C-217.86194137 470.21739254 -220.08667446 468.73129912 -222.30859375 467.24023438 C-222.9334668 466.82225586 -223.55833984 466.40427734 -224.20214844 465.97363281 C-238.76571647 456.19164805 -251.61482393 444.99100773 -264.05859375 432.67773438 C-264.77990479 431.9694751 -265.50121582 431.26121582 -266.24438477 430.53149414 C-270.73526946 426.04788046 -274.62658003 421.40284246 -278.30859375 416.24023438 C-278.94023437 415.40878906 -279.571875 414.57734375 -280.22265625 413.72070312 C-290.55852671 399.86874888 -299.61792818 385.62602947 -305.30859375 369.24023438 C-305.66695312 368.22316406 -306.0253125 367.20609375 -306.39453125 366.15820312 C-308.41869399 359.66788314 -309.402032 353.00335243 -308.30859375 346.24023438 C-305.77772905 342.72514451 -303.25132244 340.89051836 -299.30859375 339.24023438 C-297.17046966 338.91407985 -295.02250454 338.64995728 -292.87109375 338.42773438 C-281.05889087 336.82088227 -270.69169512 332.97199999 -262.30859375 324.24023438 C-254.04286769 312.96722752 -253.17954221 302.77141666 -253.09765625 289.19726562 C-253.07674633 287.24238842 -253.05581787 285.28751126 -253.03395653 283.33264446 C-252.98157744 278.56517519 -252.93731333 273.79769234 -252.90722656 269.0300293 C-252.5975519 225.4326415 -246.22391396 185.51801735 -227.10546875 145.98828125 C-226.19122734 144.06442269 -226.19122734 144.06442269 -225.30859375 141.24023438 C-224.64859375 141.24023438 -223.98859375 141.24023438 -223.30859375 141.24023438 C-223.19644531 140.25990234 -223.19644531 140.25990234 -223.08203125 139.25976562 C-222.01411564 135.09057992 -220.04158011 131.66016181 -217.93359375 127.92773438 C-217.48951172 127.13665283 -217.04542969 126.34557129 -216.58789062 125.53051758 C-211.9647003 117.43104376 -206.79953858 109.77232621 -201.30859375 102.24023438 C-200.88578125 101.65902832 -200.46296875 101.07782227 -200.02734375 100.47900391 C-194.6912057 93.20643138 -188.94139645 86.4640175 -182.7734375 79.89257812 C-180.81310507 77.78312374 -178.94804692 75.65077495 -177.12109375 73.42773438 C-174.47936087 70.30294177 -171.52998813 67.67786594 -168.41015625 65.03710938 C-167.04487064 63.8697648 -165.70416604 62.67281244 -164.39453125 61.44335938 C-147.75162177 45.89284164 -126.90333605 33.76268471 -106.30859375 24.24023438 C-105.54272949 23.88219727 -104.77686523 23.52416016 -103.98779297 23.15527344 C-84.87444233 14.31012261 -65.05176116 8.29383084 -44.49609375 3.80273438 C-43.37066162 3.55563721 -42.24522949 3.30854004 -41.08569336 3.05395508 C-27.45501359 0.22243195 -13.86639387 0.0289285 0 0 Z M-41.30859375 33.24023438 C-42.56978027 33.46453125 -42.56978027 33.46453125 -43.85644531 33.69335938 C-82.03295858 40.59099791 -117.63419934 58.93983184 -146.05859375 85.17773438 C-148.03648933 86.99080532 -150.06056192 88.71062452 -152.12109375 90.42773438 C-194.89167621 127.85199403 -219.48743954 185.3048188 -223.30859375 241.24023438 C-223.47142854 246.13566275 -223.51562014 251.02993469 -223.5546875 255.92773438 C-223.57024188 257.320564 -223.58645494 258.7133864 -223.60328674 260.10620117 C-223.67319939 265.96101638 -223.73404351 271.81589105 -223.78540039 277.67089844 C-223.81747154 281.27580578 -223.85879593 284.88051527 -223.90559578 288.48526001 C-223.92902882 290.49620826 -223.94225455 292.50726734 -223.95518494 294.51831055 C-224.22641188 314.80887637 -230.19211656 332.11889098 -244.1484375 347.17773438 C-250.64293687 353.3786307 -258.24932158 357.4460965 -266.30859375 361.24023438 C-267.85225996 362.00705558 -269.39410148 362.77756749 -270.93359375 363.55273438 C-272.60421875 364.38804687 -272.60421875 364.38804687 -274.30859375 365.24023438 C-269.66371307 392.07732277 -237.93182493 420.56208315 -217.30859375 436.24023438 C-216.74172852 436.67819336 -216.17486328 437.11615234 -215.59082031 437.56738281 C-202.57961012 448.62158303 -202.57961012 448.62158303 -187.30859375 454.24023438 C-185.77103316 452.49055026 -185.77103316 452.49055026 -184.18359375 450.24023438 C-172.84569696 435.40126925 -157.78047828 425.89641458 -139.59765625 421.59960938 C-134.46226417 421.03849765 -129.34597653 421.01470064 -124.18359375 420.99023438 C-123.11882812 420.96960938 -122.0540625 420.94898438 -120.95703125 420.92773438 C-103.40222182 420.84251685 -87.88466189 427.30827771 -74.30859375 438.24023438 C-73.67566406 438.70945312 -73.04273438 439.17867187 -72.390625 439.66210938 C-61.31119788 448.28225862 -52.85288645 462.73779285 -50.22045898 476.47998047 C-50.04755844 477.37349213 -49.8746579 478.26700378 -49.69651794 479.18759155 C-49.56850296 479.86496368 -49.44048798 480.54233582 -49.30859375 481.24023438 C28.73185361 481.57762241 98.54794298 476.19049135 157.69140625 419.24023438 C158.55862305 418.40588867 158.55862305 418.40588867 159.44335938 417.5546875 C166.73115161 410.50072818 173.63034128 403.39751746 179.69140625 395.24023438 C180.53739621 394.13448688 181.38377768 393.02903886 182.23046875 391.92382812 C205.15890789 361.66875508 220.79781049 326.82654373 226.69140625 289.24023438 C226.99884766 287.54833984 226.99884766 287.54833984 227.3125 285.82226562 C230.80218233 263.75303326 229.52549915 240.14740125 225.69140625 218.24023438 C225.57394043 217.54236816 225.45647461 216.84450195 225.33544922 216.12548828 C217.71593643 171.61732989 197.94083731 131.05942829 166.21777344 98.79296875 C164.86584643 97.41768791 163.53119694 96.02546976 162.19921875 94.63085938 C156.74723409 89.00425599 150.83781592 84.08833826 144.69140625 79.24023438 C143.24507812 78.06847656 143.24507812 78.06847656 141.76953125 76.87304688 C132.55862803 69.55575574 122.76174886 63.30537721 112.69140625 57.24023438 C112.09231445 56.87188477 111.49322266 56.50353516 110.87597656 56.12402344 C101.76558014 50.5820909 91.90551845 46.79118266 82.00390625 42.92773438 C81.33854858 42.66661865 80.67319092 42.40550293 79.9876709 42.13647461 C41.37437456 27.06427278 -0.89250034 25.65798569 -41.30859375 33.24023438 Z " fill="#232021" transform="translate(449.30859375,142.759765625)"/>
<path d="M0 0 C5.2066709 4.52753992 8.60042898 10.0315456 12.1875 15.875 C15.84571038 21.68321122 20.07225135 26.60992865 24.875 31.5 C25.99841797 32.66015625 25.99841797 32.66015625 27.14453125 33.84375 C38.25927218 44.60827521 50.98442675 49.4388717 65.875 52.5 C66.49060791 52.6743457 67.10621582 52.84869141 67.74047852 53.02832031 C88.29500654 57.57039376 110.25049254 52.17942408 127.875 41.5 C131.46638781 39.06995771 134.68593939 36.43371845 137.875 33.5 C138.70386719 32.76265625 139.53273438 32.0253125 140.38671875 31.265625 C146.3441502 25.68224361 150.60002669 19.67497469 154.84765625 12.78515625 C162.5076269 0.37275679 162.5076269 0.37275679 168.875 -1.5 C173.60647786 -1.76428075 177.50769895 -1.18965069 181.3125 1.75 C184.58964099 5.2669318 185.7416895 7.54115189 186.06640625 12.3125 C185.15343956 27.51619027 168.62314772 44.48562577 157.875 54.5 C132.80425051 76.26615703 102.57994822 84.45531363 69.875 82.5 C47.67409067 80.49691044 26.57466976 71.08578751 9.875 56.5 C9.19308594 55.94957031 8.51117188 55.39914062 7.80859375 54.83203125 C-0.41561041 48.05631706 -6.57346468 39.52553816 -12.5 30.75 C-12.91685059 30.13640625 -13.33370117 29.5228125 -13.76318359 28.890625 C-18.41268641 21.85476913 -21.66133055 15.13474668 -20.125 6.5 C-18.47963661 3.32026996 -16.16128814 1.28614962 -13.3125 -0.875 C-8.36489492 -2.28860145 -4.56281191 -2.19014972 0 0 Z " fill="#242122" transform="translate(398.125,427.5)"/>
<path d="M0 0 C7.33295776 5.06412809 12.58303938 11.39222796 15 20 C16.08930177 29.86704746 14.82927415 38.57774781 9.046875 46.765625 C2.49395907 54.60162937 -4.40409019 58.28824808 -14.54296875 59.23828125 C-24.97139382 59.53095492 -32.42681062 56.45565919 -40.01953125 49.29296875 C-47.00587154 41.20424735 -48.69915834 32.38379607 -48 22 C-46.27406763 12.60975777 -40.73258889 5.59900869 -32.984375 0.25390625 C-22.67403001 -6.26109521 -10.65451578 -5.65138122 0 0 Z " fill="#FDFCFC" transform="translate(342,612)"/>
<path d="M0 0 C7.27693075 4.65336938 12.45824071 9.90420423 15.05859375 18.31640625 C16.37386313 27.23230309 14.70934668 34.24692012 9.48046875 41.5078125 C5.0171064 46.96638402 0.14556793 50.95160027 -6.94140625 52.31640625 C-15.73390608 53.08287572 -22.94480674 53.10205584 -29.94140625 47.31640625 C-37.56270721 40.25865219 -40.96062813 34.22765518 -41.44140625 23.87890625 C-41.22188289 15.62291886 -38.13170689 10.50218644 -32.69140625 4.50390625 C-23.73329022 -3.76216648 -10.97067564 -5.77721818 0 0 Z " fill="#242121" transform="translate(577.94140625,316.68359375)"/>
<path d="M0 0 C5.09995588 3.8440781 8.22492825 8.65388751 10.07421875 14.75 C11.30898269 24.29234235 10.17503364 31.81740901 4.71875 39.7109375 C0.62744972 44.91006975 -4.31914867 48.48490014 -10.92578125 49.75 C-19.97115093 50.54745073 -27.44008871 50.25053651 -34.92578125 44.75 C-41.02239721 39.06759149 -44.43602641 33.08832771 -45.19921875 24.76953125 C-45.48158566 15.85325299 -44.13857044 9.41227088 -38.05859375 2.68359375 C-26.8951603 -7.71968373 -12.69731317 -8.24166372 0 0 Z " fill="#242021" transform="translate(412.92578125,319.25)"/>
<path d="M0 0 C1.10823705 3.76322221 0.85362237 5.46929072 -1 9 C-3.125 11.3125 -3.125 11.3125 -5 13 C-5.33 12.34 -5.66 11.68 -6 11 C-4.78515625 8.3984375 -4.78515625 8.3984375 -3.0625 5.375 C-2.21365234 3.87066406 -2.21365234 3.87066406 -1.34765625 2.3359375 C-0.90292969 1.56507813 -0.45820312 0.79421875 0 0 Z " fill="#7EBCE7" transform="translate(54,227)"/>
<path d="M0 0 C3.45195767 1.4258086 5.1014256 3.09746334 7.25 6.125 C8.03117188 7.21167969 8.03117188 7.21167969 8.828125 8.3203125 C9.40820312 9.15175781 9.40820312 9.15175781 10 10 C6.04877831 8.13605411 3.19718873 5.97919859 0 3 C0 2.01 0 1.02 0 0 Z " fill="#80BEE8" transform="translate(167,776)"/>
<path d="M0 0 C1.79275866 3.11910856 2.34290718 5.67682428 2.625 9.25 C2.69976563 10.14203125 2.77453125 11.0340625 2.8515625 11.953125 C2.92503906 12.96632813 2.92503906 12.96632813 3 14 C0.984375 12.85546875 0.984375 12.85546875 -1 11 C-1.171875 8.30078125 -1.171875 8.30078125 -0.75 5.3125 C-0.62109375 4.31863281 -0.4921875 3.32476562 -0.359375 2.30078125 C-0.24078125 1.54152344 -0.1221875 0.78226562 0 0 Z " fill="#91C9EC" transform="translate(867,358)"/>
<path d="M0 0 C1.24546405 2.49092811 0.7767578 3.41080733 0 6 C-0.66 6 -1.32 6 -2 6 C-2.103125 6.639375 -2.20625 7.27875 -2.3125 7.9375 C-2.539375 8.618125 -2.76625 9.29875 -3 10 C-3.99 10.33 -4.98 10.66 -6 11 C-4.54955729 6.89041233 -2.48889248 3.56741255 0 0 Z " fill="#85BDE8" transform="translate(74,194)"/>
<path d="M0 0 C0.66 0.99 1.32 1.98 2 3 C2.66 2.01 3.32 1.02 4 0 C4.125 2.875 4.125 2.875 4 6 C3.34 6.66 2.68 7.32 2 8 C1.01 7.34 0.02 6.68 -1 6 C-0.67 4.02 -0.34 2.04 0 0 Z " fill="#444444" transform="translate(580,437)"/>
<path d="M0 0 C-0.66 1.65 -1.32 3.3 -2 5 C-2.99 5 -3.98 5 -5 5 C-5 4.01 -5 3.02 -5 2 C-2 0 -2 0 0 0 Z " fill="#67AFE3" transform="translate(800,679)"/>
<path d="M0 0 C-1.33332095 3.99996286 -3.4957827 4.83782337 -7 7 C-7.66 6.67 -8.32 6.34 -9 6 C-7.8803014 4.99406757 -6.7540588 3.9954151 -5.625 3 C-4.68527344 2.1646875 -4.68527344 2.1646875 -3.7265625 1.3125 C-2 0 -2 0 0 0 Z " fill="#233036" transform="translate(298,195)"/>
<path d="" fill="#EDFDFF" transform="translate(0,0)"/>
</svg>
